<svg xmlns="http://www.w3.org/2000/svg" viewBox="0 0 16 16">
  <style>
    .pixel { shape-rendering: crispEdges; }
  </style>
  <!-- Background (transparent) -->
  <rect width="16" height="16" fill="transparent"/>
  <!-- Magnifying glass black -->
  <rect class="pixel" x="5" y="0" width="4" height="14" fill="black"/>
  <rect class="pixel" x="0" y="5" width="14" height="4" fill="black"/>
  <rect class="pixel" x="3" y="1" width="8" height="12" fill="black"/>
  <rect class="pixel" x="1" y="3" width="12" height="8" fill="black"/>
  <rect class="pixel" x="2" y="2" width="10" height="10" fill="black"/>

  <!-- Magnifying glass green -->
  <rect class="pixel" x="5" y="1" width="4" height="1" fill="#8bc68b"/>
  <rect class="pixel" x="1" y="5" width="1" height="4" fill="#8bc68b"/>
  <rect class="pixel" x="3" y="2" width="2" height="1" fill="#8bc68b"/>
  <rect class="pixel" x="2" y="3" width="1" height="2" fill="#8bc68b"/>

  <rect class="pixel" x="9" y="2" width="2" height="1" fill="#74a574"/>
  <rect class="pixel" x="11" y="3" width="1" height="2" fill="#74a574"/>
  <rect class="pixel" x="2" y="9" width="1" height="2" fill="#74a574"/>
  <rect class="pixel" x="3" y="11" width="2" height="1" fill="#74a574"/>

  <rect class="pixel" x="12" y="5" width="1" height="4" fill="#557a55"/>
  <rect class="pixel" x="5" y="12" width="4" height="1" fill="#557a55"/>
  <rect class="pixel" x="9" y="11" width="2" height="1" fill="#557a55"/>
  <rect class="pixel" x="11" y="9" width="1" height="2" fill="#557a55"/>

  <!-- Magnifying glass blue -->
  <rect class="pixel" x="5" y="3" width="4" height="8" fill="#71bdce"/>
  <rect class="pixel" x="3" y="5" width="8" height="4" fill="#71bdce"/>
  <rect class="pixel" x="4" y="4" width="6" height="6" fill="#71bdce"/>

  <!-- Magnifying glass white -->
  <rect class="pixel" x="5" y="4" width="1" height="1" fill="#cecece"/>
  <rect class="pixel" x="4" y="5" width="1" height="1" fill="#cecece"/>

  <!-- Magnifying glass handle black -->
  <rect class="pixel" x="15" y="13" width="1" height="2" fill="black"/>
  <rect class="pixel" x="13" y="15" width="2" height="1" fill="black"/>
  <rect class="pixel" x="12" y="12" width="3" height="3" fill="black"/>
  <rect class="pixel" x="11" y="11" width="3" height="3" fill="black"/>

  <!-- Magnifying glass handle brown -->
  <rect class="pixel" x="14" y="13" width="1" height="1" fill="#a86d3f"/>
  <rect class="pixel" x="13" y="12" width="1" height="1" fill="#a86d3f"/>
  <rect class="pixel" x="12" y="11" width="1" height="1" fill="#a86d3f"/>

  <rect class="pixel" x="14" y="14" width="1" height="1" fill="#7c502e"/>
  <rect class="pixel" x="13" y="13" width="1" height="1" fill="#7c502e"/>
  <rect class="pixel" x="12" y="12" width="1" height="1" fill="#7c502e"/>

  <rect class="pixel" x="13" y="14" width="1" height="1" fill="#563820"/>
  <rect class="pixel" x="12" y="13" width="1" height="1" fill="#563820"/>
  <rect class="pixel" x="11" y="12" width="1" height="1" fill="#563820"/>

</svg>